<svg version="1.0" width="20" height="20" viewBox="0 0 1280 1280" xmlns="http://www.w3.org/2000/svg" xmlns:svg="http://www.w3.org/2000/svg"><g transform="matrix(-0.1,0,0,0.1,1280.0495,0.09709988)" fill="#F8591F" stroke="none" id="g1"><path d="M 314,12790 C 119,12749 -21,12548 5,12345 11,12294 388,11534 3045,6220 5946,419 6081,151 6127,110 6188,56 6284,11 6358,4 c 118,-13 258,40 334,125 31,35 771,1508 3070,6106 2924,5849 3029,6062 3035,6126 15,173 -76,326 -237,403 -59,27 -74,30 -160,30 -79,-1 -104,-5 -150,-26 -30,-13 -1359,-894 -2953,-1956 L 6400,8880 3503,10812 c -1594,1062 -2923,1942 -2953,1956 -61,27 -168,37 -236,22 z" id="path1"/></g></svg>
